<?xml version="1.0" encoding="UTF-8" standalone="no"?>
<!DOCTYPE svg PUBLIC "-//W3C//DTD SVG 1.1//EN"
 "http://www.w3.org/Graphics/SVG/1.1/DTD/svg11.dtd">
<!-- Generated by graphviz version 2.43.0 (0)
 -->
<!-- Title: Supers Pages: 1 -->
<svg width="111pt" height="126pt"
 viewBox="0.00 0.00 111.00 126.00" xmlns="http://www.w3.org/2000/svg" xmlns:xlink="http://www.w3.org/1999/xlink">
<g id="graph0" class="graph" transform="scale(1 1) rotate(0) translate(4 122)">
<title>Supers</title>
<!-- FOCUS -->
<g id="node1" class="node">
<title>FOCUS</title>
<path fill="#ffffff" stroke="black" stroke-width="3" d="M79.5,-36C79.5,-36 23.5,-36 23.5,-36 17.5,-36 11.5,-30 11.5,-24 11.5,-24 11.5,-12 11.5,-12 11.5,-6 17.5,0 23.5,0 23.5,0 79.5,0 79.5,0 85.5,0 91.5,-6 91.5,-12 91.5,-12 91.5,-24 91.5,-24 91.5,-30 85.5,-36 79.5,-36"/>
<text text-anchor="middle" x="51.5" y="-14.9" font-family="Helvetica,sans-Serif" font-weight="bold" font-size="12.00">kern:Role</text>
</g>
<!-- node_71111852 -->
<g id="node2" class="node">
<title>node_71111852</title>
<polygon fill="#ddeeff" stroke="black" points="103,-118 0,-118 0,-82 103,-82 103,-118"/>
<text text-anchor="middle" x="51.5" y="-97.5" font-family="Helvetica,sans-Serif" font-size="10.00">bfo:BFO_0000023</text>
</g>
<!-- node_71111852&#45;&gt;FOCUS -->
<g id="edge1" class="edge">
<title>node_71111852&#45;&gt;FOCUS</title>
<path fill="none" stroke="black" d="M51.5,-71.43C51.5,-59.68 51.5,-46.33 51.5,-36.05"/>
<polygon fill="black" stroke="black" points="48,-71.64 51.5,-81.64 55,-71.64 48,-71.64"/>
<text text-anchor="middle" x="76" y="-56.8" font-family="Helvetica,sans-Serif" font-size="9.00">subClassOf</text>
</g>
</g>
</svg>
