<?xml version="1.0" encoding="UTF-8" standalone="no"?>
<!DOCTYPE svg PUBLIC "-//W3C//DTD SVG 1.1//EN"
 "http://www.w3.org/Graphics/SVG/1.1/DTD/svg11.dtd">
<!-- Generated by graphviz version 2.43.0 (0)
 -->
<!-- Title: Supers Pages: 1 -->
<svg width="144pt" height="126pt"
 viewBox="0.00 0.00 144.00 126.00" xmlns="http://www.w3.org/2000/svg" xmlns:xlink="http://www.w3.org/1999/xlink">
<g id="graph0" class="graph" transform="scale(1 1) rotate(0) translate(4 122)">
<title>Supers</title>
<!-- FOCUS -->
<g id="node1" class="node">
<title>FOCUS</title>
<path fill="#ffffff" stroke="black" stroke-width="3" d="M120,-36C120,-36 16,-36 16,-36 10,-36 4,-30 4,-24 4,-24 4,-12 4,-12 4,-6 10,0 16,0 16,0 120,0 120,0 126,0 132,-6 132,-12 132,-12 132,-24 132,-24 132,-30 126,-36 120,-36"/>
<text text-anchor="middle" x="68" y="-14.9" font-family="Helvetica,sans-Serif" font-weight="bold" font-size="12.00">kern:ViewProfile</text>
</g>
<!-- node_60989f09 -->
<g id="node2" class="node">
<title>node_60989f09</title>
<polygon fill="#ddeeff" stroke="black" points="136,-118 0,-118 0,-82 136,-82 136,-118"/>
<text text-anchor="middle" x="68" y="-97.5" font-family="Helvetica,sans-Serif" font-size="10.00">kern:InformationContent</text>
</g>
<!-- node_60989f09&#45;&gt;FOCUS -->
<g id="edge1" class="edge">
<title>node_60989f09&#45;&gt;FOCUS</title>
<path fill="none" stroke="black" d="M68,-71.43C68,-59.68 68,-46.33 68,-36.05"/>
<polygon fill="black" stroke="black" points="64.5,-71.64 68,-81.64 71.5,-71.64 64.5,-71.64"/>
<text text-anchor="middle" x="92.5" y="-56.8" font-family="Helvetica,sans-Serif" font-size="9.00">subClassOf</text>
</g>
</g>
</svg>
