<?xml version="1.0" encoding="UTF-8" standalone="no"?>
<!DOCTYPE svg PUBLIC "-//W3C//DTD SVG 1.1//EN"
 "http://www.w3.org/Graphics/SVG/1.1/DTD/svg11.dtd">
<!-- Generated by graphviz version 2.43.0 (0)
 -->
<!-- Title: kern:MeasurementSpecification Pages: 1 -->
<svg width="833pt" height="521pt"
 viewBox="0.00 0.00 832.50 521.00" xmlns="http://www.w3.org/2000/svg" xmlns:xlink="http://www.w3.org/1999/xlink">
<g id="graph0" class="graph" transform="scale(1 1) rotate(0) translate(4 517)">
<title>kern:MeasurementSpecification</title>
<polygon fill="white" stroke="transparent" points="-4,4 -4,-517 828.5,-517 828.5,4 -4,4"/>
<g id="clust1" class="cluster">
<title>cluster_structure</title>
<polygon fill="none" stroke="#7f7f7f" stroke-dasharray="5,2" points="8,-103 8,-433 800,-433 800,-103 8,-103"/>
<text text-anchor="middle" x="404" y="-417.8" font-family="Times,serif" font-size="14.00">Ontology Structure (TBox)</text>
</g>
<!-- LEGEND_BLOCK -->
<g id="node1" class="node">
<title>LEGEND_BLOCK</title>
<polygon fill="#fafafa" stroke="transparent" points="355.5,-464 355.5,-513 824.5,-513 824.5,-464 355.5,-464"/>
<polygon fill="#ffffff" stroke="transparent" points="366,-473.5 366,-502.5 442,-502.5 442,-473.5 366,-473.5"/>
<polygon fill="none" stroke="black" points="366,-473.5 366,-502.5 442,-502.5 442,-473.5 366,-473.5"/>
<text text-anchor="start" x="375" y="-485.5" font-family="Helvetica,sans-Serif" font-size="10.00">Focus Class</text>
<polygon fill="#ddeeff" stroke="transparent" points="452,-473.5 452,-502.5 523,-502.5 523,-473.5 452,-473.5"/>
<polygon fill="none" stroke="black" points="452,-473.5 452,-502.5 523,-502.5 523,-473.5 452,-473.5"/>
<text text-anchor="start" x="461" y="-485.5" font-family="Helvetica,sans-Serif" font-size="10.00">Superclass</text>
<polygon fill="#dfffe0" stroke="transparent" points="533,-473.5 533,-502.5 594,-502.5 594,-473.5 533,-473.5"/>
<polygon fill="none" stroke="black" points="533,-473.5 533,-502.5 594,-502.5 594,-473.5 533,-473.5"/>
<text text-anchor="start" x="542" y="-485.5" font-family="Helvetica,sans-Serif" font-size="10.00">Subclass</text>
<polygon fill="#f5f5f5" stroke="transparent" points="604,-473.5 604,-502.5 668,-502.5 668,-473.5 604,-473.5"/>
<polygon fill="none" stroke="black" points="604,-473.5 604,-502.5 668,-502.5 668,-473.5 604,-473.5"/>
<text text-anchor="start" x="613" y="-485.5" font-family="Helvetica,sans-Serif" font-size="10.00">Incoming</text>
<polygon fill="#f5f5f5" stroke="transparent" points="678,-473.5 678,-502.5 741,-502.5 741,-473.5 678,-473.5"/>
<polygon fill="none" stroke="black" points="678,-473.5 678,-502.5 741,-502.5 741,-473.5 678,-473.5"/>
<text text-anchor="start" x="687" y="-485.5" font-family="Helvetica,sans-Serif" font-size="10.00">Outgoing</text>
<polygon fill="#e1d5e7" stroke="transparent" points="751,-473.5 751,-502.5 815,-502.5 815,-473.5 751,-473.5"/>
<polygon fill="none" stroke="black" points="751,-473.5 751,-502.5 815,-502.5 815,-473.5 751,-473.5"/>
<text text-anchor="start" x="760" y="-485.5" font-family="Helvetica,sans-Serif" font-size="10.00">Datatype</text>
</g>
<!-- STRUCT_TOP -->
<!-- LEGEND_BLOCK&#45;&gt;STRUCT_TOP -->
<!-- node_b124ebee -->
<g id="node4" class="node">
<title>node_b124ebee</title>
<path fill="#ffffff" stroke="black" stroke-width="3" d="M733.5,-240C733.5,-240 446.5,-240 446.5,-240 440.5,-240 434.5,-234 434.5,-228 434.5,-228 434.5,-190 434.5,-190 434.5,-184 440.5,-178 446.5,-178 446.5,-178 733.5,-178 733.5,-178 739.5,-178 745.5,-184 745.5,-190 745.5,-190 745.5,-228 745.5,-228 745.5,-234 739.5,-240 733.5,-240"/>
<text text-anchor="start" x="482.5" y="-227.4" font-family="Helvetica,sans-Serif" font-weight="bold" font-size="12.00">kern:MeasurementSpecification</text>
<text text-anchor="start" x="477.5" y="-205" font-family="Helvetica,sans-Serif" font-weight="bold" font-size="10.00">A specification defining how a metric is</text>
<text text-anchor="start" x="442.5" y="-195" font-family="Helvetica,sans-Serif" font-weight="bold" font-size="10.00">computed/interpreted, including formula semantics</text>
<text text-anchor="start" x="444.5" y="-185" font-family="Helvetica,sans-Serif" font-weight="bold" font-size="10.00">and inclusion/exclusion semantics where provided.</text>
</g>
<!-- STRUCT_TOP&#45;&gt;node_b124ebee -->
<!-- node_60989f09 -->
<g id="node5" class="node">
<title>node_60989f09</title>
<polygon fill="#ddeeff" stroke="black" points="770,-335 634,-335 634,-299 770,-299 770,-335"/>
<text text-anchor="middle" x="702" y="-314.5" font-family="Helvetica,sans-Serif" font-size="10.00">kern:InformationContent</text>
</g>
<!-- STRUCT_TOP&#45;&gt;node_60989f09 -->
<!-- STRUCT_BOTTOM -->
<!-- CONTRACT_BLOCK -->
<g id="node7" class="node">
<title>CONTRACT_BLOCK</title>
<polygon fill="#ffe6cc" stroke="transparent" points="438,0 438,-72 742,-72 742,0 438,0"/>
<polygon fill="#ffe6cc" stroke="transparent" points="438,-45 438,-72 742,-72 742,-45 438,-45"/>
<text text-anchor="start" x="539.5" y="-57" font-family="Helvetica,sans-Serif" font-weight="bold" font-size="10.00">SHACL CONTRACT</text>
<polygon fill="#eeeeee" stroke="transparent" points="438,-30 438,-45 742,-45 742,-30 438,-30"/>
<text text-anchor="start" x="440" y="-36" font-family="Helvetica,sans-Serif" font-weight="bold" font-size="10.00">REQUIRED BY OTHER CLASSES</text>
<polygon fill="#fff0e0" stroke="transparent" points="438,-15 438,-30 742,-30 742,-15 438,-15"/>
<text text-anchor="start" x="440" y="-21" font-family="Helvetica,sans-Serif" font-style="italic" font-size="10.00">From &lt;n195f7a96fb7a4764857a5af4e3dc2471b14&gt;</text>
<text text-anchor="start" x="440" y="-6" font-family="Helvetica,sans-Serif" font-size="10.00"> • </text>
<text text-anchor="start" x="453" y="-6" font-family="Helvetica,sans-Serif" font-weight="bold" font-size="10.00">kern:usesMeasurementSpecification</text>
<text text-anchor="start" x="658" y="-6" font-family="Helvetica,sans-Serif" font-size="10.00"> (min: 1, max: 1)</text>
</g>
<!-- STRUCT_BOTTOM&#45;&gt;CONTRACT_BLOCK -->
<!-- node_b124ebee&#45;&gt;STRUCT_BOTTOM -->
<!-- node_60989f09&#45;&gt;node_b124ebee -->
<g id="edge1" class="edge">
<title>node_60989f09&#45;&gt;node_b124ebee</title>
<path fill="none" stroke="black" d="M676.49,-291.86C660.32,-276.55 639.25,-256.61 621.96,-240.25"/>
<polygon fill="black" stroke="black" points="674.34,-294.64 684.01,-298.97 679.15,-289.55 674.34,-294.64"/>
<text text-anchor="middle" x="699.5" y="-265.8" font-family="Times,serif" font-size="14.00">subClassOf</text>
</g>
<!-- node_e568e568 -->
<g id="node6" class="node">
<title>node_e568e568</title>
<polygon fill="#f5f5f5" stroke="black" points="131.5,-227 38.5,-227 38.5,-191 131.5,-191 131.5,-227"/>
<text text-anchor="middle" x="85" y="-206.5" font-family="Helvetica,sans-Serif" font-size="10.00">kern:Stipulation</text>
</g>
<!-- node_e568e568&#45;&gt;node_b124ebee -->
<g id="edge3" class="edge">
<title>node_e568e568&#45;&gt;node_b124ebee</title>
<path fill="none" stroke="black" d="M131.6,-209C197.65,-209 321.85,-209 424.33,-209"/>
<polygon fill="black" stroke="black" points="424.49,-212.5 434.49,-209 424.49,-205.5 424.49,-212.5"/>
<text text-anchor="middle" x="283" y="-215.8" font-family="Times,serif" font-size="14.00">kern:usesMeasurementSpecification</text>
</g>
</g>
</svg>
