<?xml version="1.0" encoding="UTF-8" standalone="no"?>
<!DOCTYPE svg PUBLIC "-//W3C//DTD SVG 1.1//EN"
 "http://www.w3.org/Graphics/SVG/1.1/DTD/svg11.dtd">
<!-- Generated by graphviz version 2.43.0 (0)
 -->
<!-- Title: kern:EvidenceActivity Pages: 1 -->
<svg width="477pt" height="481pt"
 viewBox="0.00 0.00 477.00 481.00" xmlns="http://www.w3.org/2000/svg" xmlns:xlink="http://www.w3.org/1999/xlink">
<g id="graph0" class="graph" transform="scale(1 1) rotate(0) translate(4 477)">
<title>kern:EvidenceActivity</title>
<polygon fill="white" stroke="transparent" points="-4,4 -4,-477 473,-477 473,4 -4,4"/>
<g id="clust1" class="cluster">
<title>cluster_structure</title>
<polygon fill="none" stroke="#7f7f7f" stroke-dasharray="5,2" points="59.5,-73 59.5,-393 409.5,-393 409.5,-73 59.5,-73"/>
<text text-anchor="middle" x="234.5" y="-377.8" font-family="Times,serif" font-size="14.00">Ontology Structure (TBox)</text>
</g>
<!-- LEGEND_BLOCK -->
<g id="node1" class="node">
<title>LEGEND_BLOCK</title>
<polygon fill="#fafafa" stroke="transparent" points="0,-424 0,-473 469,-473 469,-424 0,-424"/>
<polygon fill="#ffffff" stroke="transparent" points="10.5,-433.5 10.5,-462.5 86.5,-462.5 86.5,-433.5 10.5,-433.5"/>
<polygon fill="none" stroke="black" points="10.5,-433.5 10.5,-462.5 86.5,-462.5 86.5,-433.5 10.5,-433.5"/>
<text text-anchor="start" x="19.5" y="-445.5" font-family="Helvetica,sans-Serif" font-size="10.00">Focus Class</text>
<polygon fill="#ddeeff" stroke="transparent" points="96.5,-433.5 96.5,-462.5 167.5,-462.5 167.5,-433.5 96.5,-433.5"/>
<polygon fill="none" stroke="black" points="96.5,-433.5 96.5,-462.5 167.5,-462.5 167.5,-433.5 96.5,-433.5"/>
<text text-anchor="start" x="105.5" y="-445.5" font-family="Helvetica,sans-Serif" font-size="10.00">Superclass</text>
<polygon fill="#dfffe0" stroke="transparent" points="177.5,-433.5 177.5,-462.5 238.5,-462.5 238.5,-433.5 177.5,-433.5"/>
<polygon fill="none" stroke="black" points="177.5,-433.5 177.5,-462.5 238.5,-462.5 238.5,-433.5 177.5,-433.5"/>
<text text-anchor="start" x="186.5" y="-445.5" font-family="Helvetica,sans-Serif" font-size="10.00">Subclass</text>
<polygon fill="#f5f5f5" stroke="transparent" points="248.5,-433.5 248.5,-462.5 312.5,-462.5 312.5,-433.5 248.5,-433.5"/>
<polygon fill="none" stroke="black" points="248.5,-433.5 248.5,-462.5 312.5,-462.5 312.5,-433.5 248.5,-433.5"/>
<text text-anchor="start" x="257.5" y="-445.5" font-family="Helvetica,sans-Serif" font-size="10.00">Incoming</text>
<polygon fill="#f5f5f5" stroke="transparent" points="322.5,-433.5 322.5,-462.5 385.5,-462.5 385.5,-433.5 322.5,-433.5"/>
<polygon fill="none" stroke="black" points="322.5,-433.5 322.5,-462.5 385.5,-462.5 385.5,-433.5 322.5,-433.5"/>
<text text-anchor="start" x="331.5" y="-445.5" font-family="Helvetica,sans-Serif" font-size="10.00">Outgoing</text>
<polygon fill="#e1d5e7" stroke="transparent" points="395.5,-433.5 395.5,-462.5 459.5,-462.5 459.5,-433.5 395.5,-433.5"/>
<polygon fill="none" stroke="black" points="395.5,-433.5 395.5,-462.5 459.5,-462.5 459.5,-433.5 395.5,-433.5"/>
<text text-anchor="start" x="404.5" y="-445.5" font-family="Helvetica,sans-Serif" font-size="10.00">Datatype</text>
</g>
<!-- STRUCT_TOP -->
<!-- LEGEND_BLOCK&#45;&gt;STRUCT_TOP -->
<!-- node_8fedfbb9 -->
<g id="node4" class="node">
<title>node_8fedfbb9</title>
<path fill="#ffffff" stroke="black" stroke-width="3" d="M367.5,-200C367.5,-200 101.5,-200 101.5,-200 95.5,-200 89.5,-194 89.5,-188 89.5,-188 89.5,-160 89.5,-160 89.5,-154 95.5,-148 101.5,-148 101.5,-148 367.5,-148 367.5,-148 373.5,-148 379.5,-154 379.5,-160 379.5,-160 379.5,-188 379.5,-188 379.5,-194 373.5,-200 367.5,-200"/>
<text text-anchor="start" x="162" y="-187.4" font-family="Helvetica,sans-Serif" font-weight="bold" font-size="12.00">kern:EvidenceActivity</text>
<text text-anchor="start" x="97.5" y="-165" font-family="Helvetica,sans-Serif" font-weight="bold" font-size="10.00">An activity/event that occurred in the world and</text>
<text text-anchor="start" x="180" y="-155" font-family="Helvetica,sans-Serif" font-weight="bold" font-size="10.00">may be evidenced.</text>
</g>
<!-- STRUCT_TOP&#45;&gt;node_8fedfbb9 -->
<!-- node_caba1d6a -->
<g id="node5" class="node">
<title>node_caba1d6a</title>
<polygon fill="#ddeeff" stroke="black" points="356.5,-295 278.5,-295 278.5,-259 356.5,-259 356.5,-295"/>
<text text-anchor="middle" x="317.5" y="-274.5" font-family="Helvetica,sans-Serif" font-size="10.00">prov:Activity</text>
</g>
<!-- STRUCT_TOP&#45;&gt;node_caba1d6a -->
<!-- STRUCT_BOTTOM -->
<!-- CONTRACT_BLOCK -->
<g id="node6" class="node">
<title>CONTRACT_BLOCK</title>
<polygon fill="#ffe6cc" stroke="transparent" points="130,0 130,-42 339,-42 339,0 130,0"/>
<polygon fill="#ffe6cc" stroke="transparent" points="130.5,-15 130.5,-42 339.5,-42 339.5,-15 130.5,-15"/>
<text text-anchor="start" x="184.5" y="-27" font-family="Helvetica,sans-Serif" font-weight="bold" font-size="10.00">SHACL CONTRACT</text>
<text text-anchor="start" x="132.5" y="-5" font-family="Helvetica,sans-Serif" font-size="10.00">No SHACL constraints found for this class.</text>
</g>
<!-- STRUCT_BOTTOM&#45;&gt;CONTRACT_BLOCK -->
<!-- node_8fedfbb9&#45;&gt;STRUCT_BOTTOM -->
<!-- node_caba1d6a&#45;&gt;node_8fedfbb9 -->
<g id="edge1" class="edge">
<title>node_caba1d6a&#45;&gt;node_8fedfbb9</title>
<path fill="none" stroke="black" d="M296.77,-250.78C284.08,-235.33 267.89,-215.63 255.2,-200.19"/>
<polygon fill="black" stroke="black" points="294.37,-253.36 303.42,-258.87 299.78,-248.92 294.37,-253.36"/>
<text text-anchor="middle" x="323" y="-225.8" font-family="Times,serif" font-size="14.00">subClassOf</text>
</g>
</g>
</svg>
