<?xml version="1.0" encoding="UTF-8" standalone="no"?>
<!DOCTYPE svg PUBLIC "-//W3C//DTD SVG 1.1//EN"
 "http://www.w3.org/Graphics/SVG/1.1/DTD/svg11.dtd">
<!-- Generated by graphviz version 2.43.0 (0)
 -->
<!-- Title: KernelProperties Pages: 1 -->
<svg width="3300pt" height="335pt"
 viewBox="0.00 0.00 3300.24 335.00" xmlns="http://www.w3.org/2000/svg" xmlns:xlink="http://www.w3.org/1999/xlink">
<g id="graph0" class="graph" transform="scale(1 1) rotate(0) translate(4 331)">
<title>KernelProperties</title>
<polygon fill="white" stroke="transparent" points="-4,4 -4,-331 3296.24,-331 3296.24,4 -4,4"/>
<!-- kern:acceptedByPromotion -->
<g id="node1" class="node">
<title>kern:acceptedByPromotion</title>
<ellipse fill="none" stroke="black" cx="136.49" cy="-303" rx="136.48" ry="18"/>
<text text-anchor="middle" x="136.49" y="-299.3" font-family="Times,serif" font-size="14.00">kern:acceptedByPromotion</text>
</g>
<!-- kern:PromotionRecord -->
<g id="node3" class="node">
<title>kern:PromotionRecord</title>
<polygon fill="none" stroke="black" points="528.98,-298 350.98,-298 350.98,-262 528.98,-262 528.98,-298"/>
<text text-anchor="middle" x="439.98" y="-276.3" font-family="Times,serif" font-size="14.00">kern:PromotionRecord</text>
</g>
<!-- kern:acceptedByPromotion&#45;&gt;kern:PromotionRecord -->
<g id="edge2" class="edge">
<title>kern:acceptedByPromotion&#45;&gt;kern:PromotionRecord</title>
<path fill="none" stroke="black" d="M254.91,-294.04C283.33,-291.87 313.42,-289.58 340.84,-287.49"/>
<polygon fill="black" stroke="black" points="341.12,-290.98 350.82,-286.73 340.58,-284 341.12,-290.98"/>
<text text-anchor="middle" x="311.98" y="-293.8" font-family="Times,serif" font-size="14.00">range</text>
</g>
<!-- kern:TruthAssertion -->
<g id="node2" class="node">
<title>kern:TruthAssertion</title>
<polygon fill="none" stroke="black" points="1199.75,-325 1038.75,-325 1038.75,-289 1199.75,-289 1199.75,-325"/>
<text text-anchor="middle" x="1119.25" y="-303.3" font-family="Times,serif" font-size="14.00">kern:TruthAssertion</text>
</g>
<!-- kern:TruthAssertion&#45;&gt;kern:acceptedByPromotion -->
<g id="edge1" class="edge">
<title>kern:TruthAssertion&#45;&gt;kern:acceptedByPromotion</title>
<path fill="none" stroke="black" d="M1038.53,-310.94C1027.03,-311.38 1015.34,-311.76 1004.25,-312 985.58,-312.41 980.91,-312.04 962.25,-312 663.9,-311.33 589.25,-315.49 290.98,-309 286.43,-308.9 281.81,-308.79 277.14,-308.66"/>
<polygon fill="black" stroke="black" points="276.95,-305.16 266.86,-308.38 276.76,-312.16 276.95,-305.16"/>
<text text-anchor="middle" x="573.48" y="-315.8" font-family="Times,serif" font-size="14.00">domain</text>
</g>
<!-- kern:producesAcceptedAssertion -->
<g id="node18" class="node">
<title>kern:producesAcceptedAssertion</title>
<ellipse fill="none" stroke="black" cx="781.11" cy="-280" rx="163.27" ry="18"/>
<text text-anchor="middle" x="781.11" y="-276.3" font-family="Times,serif" font-size="14.00">kern:producesAcceptedAssertion</text>
</g>
<!-- kern:PromotionRecord&#45;&gt;kern:producesAcceptedAssertion -->
<g id="edge15" class="edge">
<title>kern:PromotionRecord&#45;&gt;kern:producesAcceptedAssertion</title>
<path fill="none" stroke="black" d="M529.19,-280C553.4,-280 580.51,-280 607.72,-280"/>
<polygon fill="black" stroke="black" points="607.74,-283.5 617.74,-280 607.74,-276.5 607.74,-283.5"/>
<text text-anchor="middle" x="573.48" y="-283.8" font-family="Times,serif" font-size="14.00">domain</text>
</g>
<!-- kern:promotesCandidate -->
<g id="node19" class="node">
<title>kern:promotesCandidate</title>
<ellipse fill="none" stroke="black" cx="781.11" cy="-226" rx="126.18" ry="18"/>
<text text-anchor="middle" x="781.11" y="-222.3" font-family="Times,serif" font-size="14.00">kern:promotesCandidate</text>
</g>
<!-- kern:PromotionRecord&#45;&gt;kern:promotesCandidate -->
<g id="edge17" class="edge">
<title>kern:PromotionRecord&#45;&gt;kern:promotesCandidate</title>
<path fill="none" stroke="black" d="M529.15,-264C535.18,-262.97 541.16,-261.96 546.98,-261 591,-253.75 639.8,-246.33 681.34,-240.2"/>
<polygon fill="black" stroke="black" points="682.07,-243.63 691.45,-238.71 681.05,-236.7 682.07,-243.63"/>
<text text-anchor="middle" x="573.48" y="-264.8" font-family="Times,serif" font-size="14.00">domain</text>
</g>
<!-- kern:hasExternalIdentifier -->
<g id="node4" class="node">
<title>kern:hasExternalIdentifier</title>
<ellipse fill="none" stroke="black" cx="2376.18" cy="-172" rx="133.78" ry="18"/>
<text text-anchor="middle" x="2376.18" y="-168.3" font-family="Times,serif" font-size="14.00">kern:hasExternalIdentifier</text>
</g>
<!-- kern:ExternalIdentifier -->
<g id="node6" class="node">
<title>kern:ExternalIdentifier</title>
<polygon fill="none" stroke="black" points="2769.07,-190 2588.07,-190 2588.07,-154 2769.07,-154 2769.07,-190"/>
<text text-anchor="middle" x="2678.57" y="-168.3" font-family="Times,serif" font-size="14.00">kern:ExternalIdentifier</text>
</g>
<!-- kern:hasExternalIdentifier&#45;&gt;kern:ExternalIdentifier -->
<g id="edge4" class="edge">
<title>kern:hasExternalIdentifier&#45;&gt;kern:ExternalIdentifier</title>
<path fill="none" stroke="black" d="M2510.25,-172C2532.88,-172 2556.02,-172 2577.61,-172"/>
<polygon fill="black" stroke="black" points="2577.74,-175.5 2587.74,-172 2577.74,-168.5 2577.74,-175.5"/>
<text text-anchor="middle" x="2549.07" y="-175.8" font-family="Times,serif" font-size="14.00">range</text>
</g>
<!-- kern:TargetReference -->
<g id="node5" class="node">
<title>kern:TargetReference</title>
<polygon fill="none" stroke="black" points="2117.3,-190 1945.3,-190 1945.3,-154 2117.3,-154 2117.3,-190"/>
<text text-anchor="middle" x="2031.3" y="-168.3" font-family="Times,serif" font-size="14.00">kern:TargetReference</text>
</g>
<!-- kern:TargetReference&#45;&gt;kern:hasExternalIdentifier -->
<g id="edge3" class="edge">
<title>kern:TargetReference&#45;&gt;kern:hasExternalIdentifier</title>
<path fill="none" stroke="black" d="M2117.5,-172C2152,-172 2192.8,-172 2231.64,-172"/>
<polygon fill="black" stroke="black" points="2232,-175.5 2242,-172 2232,-168.5 2232,-175.5"/>
<text text-anchor="middle" x="2197.8" y="-175.8" font-family="Times,serif" font-size="14.00">domain</text>
</g>
<!-- kern:isAboutEntity -->
<g id="node16" class="node">
<title>kern:isAboutEntity</title>
<ellipse fill="none" stroke="black" cx="2376.18" cy="-118" rx="98.58" ry="18"/>
<text text-anchor="middle" x="2376.18" y="-114.3" font-family="Times,serif" font-size="14.00">kern:isAboutEntity</text>
</g>
<!-- kern:TargetReference&#45;&gt;kern:isAboutEntity -->
<g id="edge13" class="edge">
<title>kern:TargetReference&#45;&gt;kern:isAboutEntity</title>
<path fill="none" stroke="black" d="M2117.5,-158.58C2170.41,-150.25 2238.16,-139.58 2290.9,-131.27"/>
<polygon fill="black" stroke="black" points="2291.57,-134.71 2300.91,-129.7 2290.48,-127.8 2291.57,-134.71"/>
<text text-anchor="middle" x="2197.8" y="-152.8" font-family="Times,serif" font-size="14.00">domain</text>
</g>
<!-- kern:identifierScheme -->
<g id="node10" class="node">
<title>kern:identifierScheme</title>
<ellipse fill="none" stroke="black" cx="2971.81" cy="-172" rx="113.98" ry="18"/>
<text text-anchor="middle" x="2971.81" y="-168.3" font-family="Times,serif" font-size="14.00">kern:identifierScheme</text>
</g>
<!-- kern:ExternalIdentifier&#45;&gt;kern:identifierScheme -->
<g id="edge7" class="edge">
<title>kern:ExternalIdentifier&#45;&gt;kern:identifierScheme</title>
<path fill="none" stroke="black" d="M2769.33,-172C2794.15,-172 2821.53,-172 2847.89,-172"/>
<polygon fill="black" stroke="black" points="2847.94,-175.5 2857.94,-172 2847.94,-168.5 2847.94,-175.5"/>
<text text-anchor="middle" x="2813.57" y="-175.8" font-family="Times,serif" font-size="14.00">domain</text>
</g>
<!-- kern:identifierValue -->
<g id="node12" class="node">
<title>kern:identifierValue</title>
<ellipse fill="none" stroke="black" cx="2971.81" cy="-106" rx="102.88" ry="18"/>
<text text-anchor="middle" x="2971.81" y="-102.3" font-family="Times,serif" font-size="14.00">kern:identifierValue</text>
</g>
<!-- kern:ExternalIdentifier&#45;&gt;kern:identifierValue -->
<g id="edge9" class="edge">
<title>kern:ExternalIdentifier&#45;&gt;kern:identifierValue</title>
<path fill="none" stroke="black" d="M2759.16,-153.97C2802.5,-144.14 2855.75,-132.08 2897.99,-122.5"/>
<polygon fill="black" stroke="black" points="2898.95,-125.87 2907.93,-120.25 2897.41,-119.05 2898.95,-125.87"/>
<text text-anchor="middle" x="2813.57" y="-149.8" font-family="Times,serif" font-size="14.00">domain</text>
</g>
<!-- kern:hasStipulationNature -->
<g id="node7" class="node">
<title>kern:hasStipulationNature</title>
<ellipse fill="none" stroke="black" cx="1484.63" cy="-118" rx="134.58" ry="18"/>
<text text-anchor="middle" x="1484.63" y="-114.3" font-family="Times,serif" font-size="14.00">kern:hasStipulationNature</text>
</g>
<!-- kern:StipulationNature -->
<g id="node9" class="node">
<title>kern:StipulationNature</title>
<polygon fill="none" stroke="black" points="2122.3,-136 1940.3,-136 1940.3,-100 2122.3,-100 2122.3,-136"/>
<text text-anchor="middle" x="2031.3" y="-114.3" font-family="Times,serif" font-size="14.00">kern:StipulationNature</text>
</g>
<!-- kern:hasStipulationNature&#45;&gt;kern:StipulationNature -->
<g id="edge6" class="edge">
<title>kern:hasStipulationNature&#45;&gt;kern:StipulationNature</title>
<path fill="none" stroke="black" d="M1619.22,-118C1715.26,-118 1842.71,-118 1930.09,-118"/>
<polygon fill="black" stroke="black" points="1930.28,-121.5 1940.28,-118 1930.28,-114.5 1930.28,-121.5"/>
<text text-anchor="middle" x="1786.66" y="-121.8" font-family="Times,serif" font-size="14.00">range</text>
</g>
<!-- kern:Stipulation -->
<g id="node8" class="node">
<title>kern:Stipulation</title>
<polygon fill="none" stroke="black" points="1185.25,-109 1053.25,-109 1053.25,-73 1185.25,-73 1185.25,-109"/>
<text text-anchor="middle" x="1119.25" y="-87.3" font-family="Times,serif" font-size="14.00">kern:Stipulation</text>
</g>
<!-- kern:Stipulation&#45;&gt;kern:hasStipulationNature -->
<g id="edge5" class="edge">
<title>kern:Stipulation&#45;&gt;kern:hasStipulationNature</title>
<path fill="none" stroke="black" d="M1185.63,-95.86C1233.05,-99.38 1298.71,-104.26 1356.32,-108.54"/>
<polygon fill="black" stroke="black" points="1356.38,-112.05 1366.61,-109.31 1356.9,-105.07 1356.38,-112.05"/>
<text text-anchor="middle" x="1260.75" y="-106.8" font-family="Times,serif" font-size="14.00">domain</text>
</g>
<!-- kern:ruleExpression -->
<g id="node20" class="node">
<title>kern:ruleExpression</title>
<ellipse fill="none" stroke="black" cx="1786.66" cy="-18" rx="104.78" ry="18"/>
<text text-anchor="middle" x="1786.66" y="-14.3" font-family="Times,serif" font-size="14.00">kern:ruleExpression</text>
</g>
<!-- kern:Stipulation&#45;&gt;kern:ruleExpression -->
<g id="edge19" class="edge">
<title>kern:Stipulation&#45;&gt;kern:ruleExpression</title>
<path fill="none" stroke="black" d="M1169.74,-72.96C1206.56,-60.43 1258.36,-44.65 1305.25,-37 1429.96,-16.65 1575.18,-13.72 1673.04,-14.73"/>
<polygon fill="black" stroke="black" points="1673.21,-18.23 1683.25,-14.85 1673.29,-11.23 1673.21,-18.23"/>
<text text-anchor="middle" x="1260.75" y="-56.8" font-family="Times,serif" font-size="14.00">domain</text>
</g>
<!-- kern:stipulatesOn -->
<g id="node21" class="node">
<title>kern:stipulatesOn</title>
<ellipse fill="none" stroke="black" cx="1484.63" cy="-172" rx="93.68" ry="18"/>
<text text-anchor="middle" x="1484.63" y="-168.3" font-family="Times,serif" font-size="14.00">kern:stipulatesOn</text>
</g>
<!-- kern:Stipulation&#45;&gt;kern:stipulatesOn -->
<g id="edge21" class="edge">
<title>kern:Stipulation&#45;&gt;kern:stipulatesOn</title>
<path fill="none" stroke="black" d="M1174.8,-109.01C1211.38,-120.57 1260.81,-135.2 1305.25,-145 1334.25,-151.4 1366.24,-156.76 1395.03,-160.98"/>
<polygon fill="black" stroke="black" points="1394.67,-164.46 1405.06,-162.42 1395.66,-157.53 1394.67,-164.46"/>
<text text-anchor="middle" x="1260.75" y="-143.8" font-family="Times,serif" font-size="14.00">domain</text>
</g>
<!-- kern:usesMeasurementSpecification -->
<g id="node22" class="node">
<title>kern:usesMeasurementSpecification</title>
<ellipse fill="none" stroke="black" cx="1484.63" cy="-64" rx="179.27" ry="18"/>
<text text-anchor="middle" x="1484.63" y="-60.3" font-family="Times,serif" font-size="14.00">kern:usesMeasurementSpecification</text>
</g>
<!-- kern:Stipulation&#45;&gt;kern:usesMeasurementSpecification -->
<g id="edge23" class="edge">
<title>kern:Stipulation&#45;&gt;kern:usesMeasurementSpecification</title>
<path fill="none" stroke="black" d="M1185.34,-85.07C1201.33,-83.67 1218.4,-82.23 1234.25,-81 1263.11,-78.75 1293.86,-76.52 1323.56,-74.45"/>
<polygon fill="black" stroke="black" points="1323.86,-77.94 1333.59,-73.75 1323.37,-70.95 1323.86,-77.94"/>
<text text-anchor="middle" x="1260.75" y="-84.8" font-family="Times,serif" font-size="14.00">domain</text>
</g>
<!-- xsd:anyURI -->
<g id="node11" class="node">
<title>xsd:anyURI</title>
<ellipse fill="none" stroke="black" cx="3227.9" cy="-172" rx="64.19" ry="18"/>
<text text-anchor="middle" x="3227.9" y="-168.3" font-family="Times,serif" font-size="14.00">xsd:anyURI</text>
</g>
<!-- kern:identifierScheme&#45;&gt;xsd:anyURI -->
<g id="edge8" class="edge">
<title>kern:identifierScheme&#45;&gt;xsd:anyURI</title>
<path fill="none" stroke="black" d="M3085.74,-172C3108.63,-172 3132.14,-172 3153.25,-172"/>
<polygon fill="black" stroke="black" points="3153.41,-175.5 3163.41,-172 3153.41,-168.5 3153.41,-175.5"/>
<text text-anchor="middle" x="3124.55" y="-175.8" font-family="Times,serif" font-size="14.00">range</text>
</g>
<!-- xsd:string -->
<g id="node13" class="node">
<title>xsd:string</title>
<ellipse fill="none" stroke="black" cx="3227.9" cy="-68" rx="57.69" ry="18"/>
<text text-anchor="middle" x="3227.9" y="-64.3" font-family="Times,serif" font-size="14.00">xsd:string</text>
</g>
<!-- kern:identifierValue&#45;&gt;xsd:string -->
<g id="edge10" class="edge">
<title>kern:identifierValue&#45;&gt;xsd:string</title>
<path fill="none" stroke="black" d="M3050.43,-94.39C3087.35,-88.87 3130.88,-82.36 3165.47,-77.19"/>
<polygon fill="black" stroke="black" points="3166.06,-80.64 3175.43,-75.7 3165.02,-73.71 3166.06,-80.64"/>
<text text-anchor="middle" x="3124.55" y="-89.8" font-family="Times,serif" font-size="14.00">range</text>
</g>
<!-- kern:isAbout -->
<g id="node14" class="node">
<title>kern:isAbout</title>
<ellipse fill="none" stroke="black" cx="1484.63" cy="-226" rx="69.59" ry="18"/>
<text text-anchor="middle" x="1484.63" y="-222.3" font-family="Times,serif" font-size="14.00">kern:isAbout</text>
</g>
<!-- kern:isAbout&#45;&gt;kern:TargetReference -->
<g id="edge12" class="edge">
<title>kern:isAbout&#45;&gt;kern:TargetReference</title>
<path fill="none" stroke="black" d="M1551.78,-221.31C1632.16,-215.37 1771.86,-204.31 1891.3,-191 1905.46,-189.42 1920.4,-187.57 1935.04,-185.66"/>
<polygon fill="black" stroke="black" points="1935.65,-189.11 1945.11,-184.33 1934.74,-182.17 1935.65,-189.11"/>
<text text-anchor="middle" x="1786.66" y="-213.8" font-family="Times,serif" font-size="14.00">range</text>
</g>
<!-- kern:InformationContent -->
<g id="node15" class="node">
<title>kern:InformationContent</title>
<polygon fill="none" stroke="black" points="1216.25,-244 1022.25,-244 1022.25,-208 1216.25,-208 1216.25,-244"/>
<text text-anchor="middle" x="1119.25" y="-222.3" font-family="Times,serif" font-size="14.00">kern:InformationContent</text>
</g>
<!-- kern:InformationContent&#45;&gt;kern:isAbout -->
<g id="edge11" class="edge">
<title>kern:InformationContent&#45;&gt;kern:isAbout</title>
<path fill="none" stroke="black" d="M1216.67,-226C1275.46,-226 1349.65,-226 1404.89,-226"/>
<polygon fill="black" stroke="black" points="1404.98,-229.5 1414.98,-226 1404.98,-222.5 1404.98,-229.5"/>
<text text-anchor="middle" x="1260.75" y="-229.8" font-family="Times,serif" font-size="14.00">domain</text>
</g>
<!-- owl:Thing -->
<g id="node17" class="node">
<title>owl:Thing</title>
<polygon fill="none" stroke="black" points="2721.57,-136 2635.57,-136 2635.57,-100 2721.57,-100 2721.57,-136"/>
<text text-anchor="middle" x="2678.57" y="-114.3" font-family="Times,serif" font-size="14.00">owl:Thing</text>
</g>
<!-- kern:isAboutEntity&#45;&gt;owl:Thing -->
<g id="edge14" class="edge">
<title>kern:isAboutEntity&#45;&gt;owl:Thing</title>
<path fill="none" stroke="black" d="M2475.13,-118C2525.16,-118 2584.03,-118 2625.35,-118"/>
<polygon fill="black" stroke="black" points="2625.46,-121.5 2635.46,-118 2625.46,-114.5 2625.46,-121.5"/>
<text text-anchor="middle" x="2549.07" y="-121.8" font-family="Times,serif" font-size="14.00">range</text>
</g>
<!-- kern:producesAcceptedAssertion&#45;&gt;kern:TruthAssertion -->
<g id="edge16" class="edge">
<title>kern:producesAcceptedAssertion&#45;&gt;kern:TruthAssertion</title>
<path fill="none" stroke="black" d="M916.63,-290.05C945.54,-292.28 975.91,-294.67 1004.25,-297 1012.13,-297.65 1020.32,-298.34 1028.53,-299.04"/>
<polygon fill="black" stroke="black" points="1028.27,-302.53 1038.53,-299.89 1028.87,-295.55 1028.27,-302.53"/>
<text text-anchor="middle" x="983.25" y="-300.8" font-family="Times,serif" font-size="14.00">range</text>
</g>
<!-- kern:promotesCandidate&#45;&gt;kern:InformationContent -->
<g id="edge18" class="edge">
<title>kern:promotesCandidate&#45;&gt;kern:InformationContent</title>
<path fill="none" stroke="black" d="M907.28,-226C941.7,-226 978.7,-226 1011.95,-226"/>
<polygon fill="black" stroke="black" points="1012.14,-229.5 1022.14,-226 1012.14,-222.5 1012.14,-229.5"/>
<text text-anchor="middle" x="983.25" y="-229.8" font-family="Times,serif" font-size="14.00">range</text>
</g>
<!-- kern:ruleExpression&#45;&gt;xsd:string -->
<g id="edge20" class="edge">
<title>kern:ruleExpression&#45;&gt;xsd:string</title>
<path fill="none" stroke="black" d="M1891.49,-18C1974.19,-18 2092.91,-18 2196.8,-18 2196.8,-18 2196.8,-18 2972.81,-18 3044.89,-18 3126.33,-37.61 3177.15,-52.27"/>
<polygon fill="black" stroke="black" points="3176.31,-55.67 3186.89,-55.12 3178.28,-48.95 3176.31,-55.67"/>
<text text-anchor="middle" x="2549.07" y="-21.8" font-family="Times,serif" font-size="14.00">range</text>
</g>
<!-- kern:stipulatesOn&#45;&gt;kern:TargetReference -->
<g id="edge22" class="edge">
<title>kern:stipulatesOn&#45;&gt;kern:TargetReference</title>
<path fill="none" stroke="black" d="M1578.33,-172C1677.71,-172 1834.7,-172 1935.05,-172"/>
<polygon fill="black" stroke="black" points="1935.18,-175.5 1945.18,-172 1935.18,-168.5 1935.18,-175.5"/>
<text text-anchor="middle" x="1786.66" y="-175.8" font-family="Times,serif" font-size="14.00">range</text>
</g>
<!-- kern:MeasurementSpecification -->
<g id="node23" class="node">
<title>kern:MeasurementSpecification</title>
<polygon fill="none" stroke="black" points="2153.3,-82 1909.3,-82 1909.3,-46 2153.3,-46 2153.3,-82"/>
<text text-anchor="middle" x="2031.3" y="-60.3" font-family="Times,serif" font-size="14.00">kern:MeasurementSpecification</text>
</g>
<!-- kern:usesMeasurementSpecification&#45;&gt;kern:MeasurementSpecification -->
<g id="edge24" class="edge">
<title>kern:usesMeasurementSpecification&#45;&gt;kern:MeasurementSpecification</title>
<path fill="none" stroke="black" d="M1664.35,-64C1740.77,-64 1828.38,-64 1898.72,-64"/>
<polygon fill="black" stroke="black" points="1898.97,-67.5 1908.97,-64 1898.97,-60.5 1898.97,-67.5"/>
<text text-anchor="middle" x="1786.66" y="-67.8" font-family="Times,serif" font-size="14.00">range</text>
</g>
</g>
</svg>
